# xmcd
#
# Track frame offsets:
#	150
#	15733
#	32703
#	50576
#	65769
#	84107
#	101226
#	116359
#	132372
#	153963
#	170434
#	185606
#	199867
#	216195
#	236090
#	254332
#	269217
#	285028
#	302359
#	324417
#
# Disc length: 4594 seconds
#
# Revision: 0
# Processed by: cddbd v1.5.2PL0 Copyright (c) Steve Scherf et al.
# Submitted via: EasyCDDAExtractor 16.0.9.1
#
DISCID=1b11f014
DTITLE=Nu Urban Traxx Volume 215 US
DYEAR=2015
DGENRE=blues
TTITLE0=Janet Jackson\n - No Sleeep\n
TTITLE1=Meek Mill ft. Chris Brown and Nicki Minaj\n - All Eyes On You\n
TTITLE2=D.R.A.M.\n - Cha Cha\n
TTITLE3=T-Pain ft. Juicy J\n - Make That Sh*t Work\n
TTITLE4=The Weeknd\n - The Hills\n
TTITLE5=Chris Brown\n - Liquor\n
TTITLE6=Omarion ft. Kid Ink and French Montana\n - I'm Up\n
TTITLE7=K Camp\n - Comfortable\n
TTITLE8=The Game ft. Drake\n - 100\n
TTITLE9=Lil Wayne and Charlie Puth\n - Nothing But Trouble\n
TTITLE10=Monica ft. Lil Wayne\n - Just Right For Me\n
TTITLE11=Gunplay ft. YG\n - Wuzhanindoe\n
TTITLE12=The Weeknd\n - Can't Feel My Face\n
TTITLE13=Ray J ft. Lil Wayne\n - Brown Sugar\n
TTITLE14=Dej Loaf ft. Big Sean\n - Back Up\n
TTITLE15=Trey Songz\n - About You\n
TTITLE16=Robin Thicke\n - Morning Sun\n
TTITLE17=Ty Dolla $ign ft. Future and Rae Sremmurd\n - Blase\n
TTITLE18=Travi$ Scott ft. Future and 2 Chainz\n - 3500\n
TTITLE19=Jaheim\n - Back In My Arms\n
EXTD=
EXTT0=
EXTT1=
EXTT2=
EXTT3=
EXTT4=
EXTT5=
EXTT6=
EXTT7=
EXTT8=
EXTT9=
EXTT10=
EXTT11=
EXTT12=
EXTT13=
EXTT14=
EXTT15=
EXTT16=
EXTT17=
EXTT18=
EXTT19=
PLAYORDER=
